<?xml version="1.0" standalone="no"?>
<!DOCTYPE svg PUBLIC "-//W3C//DTD SVG 20010904//EN"
 "http://www.w3.org/TR/2001/REC-SVG-20010904/DTD/svg10.dtd">
<svg version="1.0" xmlns="http://www.w3.org/2000/svg"
 width="456.000000pt" height="456.000000pt" viewBox="0 0 456.000000 456.000000"
 preserveAspectRatio="xMidYMid meet">
<metadata>
Created by potrace 1.14, written by Peter Selinger 2001-2017
</metadata>
<g transform="translate(0.000000,456.000000) scale(0.100000,-0.100000)"
fill="#000000" stroke="none">
<path d="M2218 3925 c-1 -2 -27 -6 -57 -10 -30 -4 -61 -8 -70 -10 -407 -84
-743 -288 -986 -600 -185 -237 -286 -479 -340 -815 -13 -83 -13 -291 1 -400
18 -149 25 -172 57 -190 24 -13 30 -13 55 0 24 14 27 22 26 65 0 45 -5 87 -20
180 -14 83 -3 291 22 425 147 777 870 1314 1649 1226 393 -44 770 -254 1017
-565 218 -273 331 -595 337 -961 2 -116 13 -140 61 -140 49 0 62 28 63 132 2
192 -25 356 -88 545 -189 565 -679 990 -1265 1098 -83 16 -450 31 -462 20z"/>
<path d="M1784 3020 c-27 -10 -54 -48 -54 -73 0 -10 13 -31 29 -47 32 -33 72
-33 105 0 53 52 -12 147 -80 120z"/>
<path d="M3117 3012 c-10 -10 -17 -22 -17 -26 0 -4 -25 -71 -56 -149 -199
-503 -436 -834 -634 -887 -130 -35 -214 63 -259 300 -21 112 -23 139 -26 315
-4 215 -2 190 -21 209 -33 34 -104 8 -104 -38 0 -38 -124 -260 -233 -416 -460
-659 -1070 -1117 -1705 -1280 -53 -14 -71 -44 -52 -89 16 -40 37 -45 111 -26
324 84 692 272 984 503 316 250 628 596 835 924 30 48 57 88 60 88 3 0 6 -21
6 -48 2 -71 12 -139 33 -222 60 -242 163 -353 325 -353 216 0 458 247 670 682
25 52 47 96 50 98 2 2 4 -32 5 -75 1 -43 3 -89 6 -103 2 -13 6 -51 9 -84 25
-278 139 -503 289 -573 114 -53 223 -51 402 9 229 77 461 225 658 420 104 104
116 130 77 169 -35 35 -58 25 -154 -68 -125 -120 -166 -154 -276 -227 -201
-134 -387 -208 -530 -209 -98 -1 -145 18 -198 79 -61 69 -121 225 -136 355 -4
30 -10 80 -14 110 -7 62 -7 426 1 510 3 34 0 67 -9 88 -11 27 -18 32 -47 32
-20 0 -41 -7 -50 -18z"/>
<path d="M3784 1620 c-12 -5 -47 -54 -84 -117 -34 -59 -66 -110 -69 -113 -4
-3 -18 -21 -31 -40 -87 -124 -272 -291 -425 -382 -177 -105 -391 -181 -580
-205 -77 -10 -325 -10 -392 -1 -236 35 -450 118 -656 255 -89 60 -244 200
-325 296 -37 42 -78 49 -105 19 -32 -35 -21 -65 57 -153 482 -550 1284 -709
1942 -388 307 150 590 426 729 713 26 54 27 61 14 84 -17 30 -46 42 -75 32z"/>
</g>
</svg>
